<?xml version="1.0" standalone="no"?>
<!DOCTYPE svg PUBLIC "-//W3C//DTD SVG 1.1//EN" "http://www.w3.org/Graphics/SVG/1.1/DTD/svg11.dtd" >
<!--
2013-9-30: Created.
-->
<svg>
<metadata>
Created by iconfont
</metadata>
<defs>

<font id="iconfont" horiz-adv-x="1024" >
  <font-face
    font-family="iconfont"
    font-weight="500"
    font-stretch="normal"
    units-per-em="1024"
    ascent="896"
    descent="-128"
  />
    <missing-glyph />
    
    <glyph glyph-name="x" unicode="x" horiz-adv-x="1001"
d="M281 543q-27 -1 -53 -1h-83q-18 0 -36.5 -6t-32.5 -18.5t-23 -32t-9 -45.5v-76h912v41q0 16 -0.5 30t-0.5 18q0 13 -5 29t-17 29.5t-31.5 22.5t-49.5 9h-133v-97h-438v97zM955 310v-52q0 -23 0.5 -52t0.5 -58t-10.5 -47.5t-26 -30t-33 -16t-31.5 -4.5q-14 -1 -29.5 -0.5
t-29.5 0.5h-32l-45 128h-439l-44 -128h-29h-34q-20 0 -45 1q-25 0 -41 9.5t-25.5 23t-13.5 29.5t-4 30v167h911zM163 247q-12 0 -21 -8.5t-9 -21.5t9 -21.5t21 -8.5q13 0 22 8.5t9 21.5t-9 21.5t-22 8.5zM316 123q-8 -26 -14 -48q-5 -19 -10.5 -37t-7.5 -25t-3 -15t1 -14.5
t9.5 -10.5t21.5 -4h37h67h81h80h64h36q23 0 34 12t2 38q-5 13 -9.5 30.5t-9.5 34.5q-5 19 -11 39h-368zM336 498v228q0 11 2.5 23t10 21.5t20.5 15.5t34 6h188q31 0 51.5 -14.5t20.5 -52.5v-227h-327z" />
    

    
    <glyph glyph-name="next_cicle" unicode="&#58968;" d="M630.794082 402.535145c-0.039909 0.040932-0.075725 0.083911-0.115634 0.12382-1.425466 1.438769-2.971681 2.673899-4.604878 3.719718L375.572306 610.359424c-4.939499 6.65763-12.839423 11.002588-21.725814 11.050684-0.63752 0.00307-1.2689-0.022513-1.89721-0.061398-6.396687-0.252757-12.720719-2.838651-17.600867-7.768941-0.423649-0.428765-0.823761-0.871857-1.212618-1.322112-3.828188-4.323469-6.231935-9.892301-6.461155-16.086373-0.037862-0.727571-0.042979-1.457188-0.022513-2.185782l0.224104-422.024779c0.079818-14.866592 12.622482-26.983561 27.487028-27.062356 9.146311-0.049119 17.201777 4.472871 22.031782 11.422144L625.3153 359.99426000000005c2.13257 1.183965 4.139274 2.682086 5.946432 4.50664 10.285251 10.403954 10.285251 27.260877 0 37.653575L630.794082 402.535145zM381.115556 229.45518100000004l-0.164752 308.513516 189.069123-153.947208L381.115556 229.45518100000004zM510.69682 891.72565c-281.464463 0-509.653559-228.175793-509.653559-509.651512 0-281.46344 228.189096-509.652536 509.653559-509.652536 281.476743 0 509.650489 228.189096 509.650489 509.652536C1020.347309 663.549857 792.174586 891.72565 510.69682 891.72565zM510.417457-71.86346900000001c-251.322979 0-455.050963 203.741287-455.050963 455.064266 0 251.308653 203.727984 455.050963 455.050963 455.050963 251.324002 0 455.051987-203.742311 455.051987-455.050963C965.46842 131.87781900000004 761.741459-71.86346900000001 510.417457-71.86346900000001zM666.431743 594.229049c-14.863523 0.078795-27.273157-11.493775-27.193339-26.358321l0.226151-368.728946c0.077771-14.864546 12.621459-26.983561 27.484981-27.061332 14.865569-0.079818 26.863834 11.904121 26.784016 26.782993l-0.226151 368.304274C693.427584 582.031239 681.309592 594.149231 666.431743 594.229049z"  horiz-adv-x="1024" />

    
    <glyph glyph-name="pause_cicle" unicode="&#59151;" d="M512 896C229.264 896 0 666.752 0 384s229.248-512 512-512 512 229.248 512 512S794.752 896 512 896zM512-80C255.744-80 48 127.74400000000003 48 384S255.744 848 512 848s464-207.744 464-464S768.272-80 512-80zM386.672 592c-17.664 0-32-14.336-32-32l0-352c0-17.664 14.336-32 32-32s32 14.336 32 32L418.672 560C418.672 577.664 404.336 592 386.672 592zM637.344 592c-17.664 0-32-14.336-32-32l0-352c0-17.664 14.336-32 32-32s32 14.336 32 32L669.344 560C669.344 577.664 655.008 592 637.344 592z"  horiz-adv-x="1024" />

    
    <glyph glyph-name="recent" unicode="&#58998;" d="M511.646959 831.916473c-247.201102 0-447.594131-200.396099-447.594131-447.597201 0-247.200078 200.394053-447.595154 447.594131-447.595154 247.201102 0 447.597201 200.395076 447.597201 447.595154C959.24416 631.5203730000001 758.848061 831.916473 511.646959 831.916473zM511.646959-7.52206799999999c-216.408795 0-391.842363 175.433568-391.842363 391.84134 0 216.410841 175.433568 391.843386 391.842363 391.843386 216.408795 0 391.844409-175.433568 391.844409-391.843386C903.492392 167.91047700000001 728.055754-7.52206799999999 511.646959-7.52206799999999zM762.176876 384.320295L525.548574 384.320295 525.548574 620.863662c0 8.411577-10.041704 15.230889-22.425755 15.230889l-11.211343 0c-12.384052 0-22.422685-6.820336-22.422685-15.230889l0-277.262768c0-3.936659 2.217505-7.513114 5.827729-10.216689 2.619664-3.130294 5.958712-5.012154 9.598612-5.012154l6.967692 0c0.00921 0 0.01842-0.001023 0.028653-0.001023l11.211343 0c0.00921 0 0.01842 0.001023 0.028653 0.001023l259.024381 0c8.411577 0 15.230889 10.021238 15.230889 22.38073l0 11.18883C777.407766 374.301104 770.588453 384.320295 762.176876 384.320295z"  horiz-adv-x="1024" />

    
    <glyph glyph-name="random" unicode="&#59491;" d="M380.64 537.152q-34.272-52.576-78.272-156-12.576 25.728-21.152 41.44t-23.136 36.288-29.152 32.288-36 20-46.56 8.288l-128 0q-8 0-13.152 5.152t-5.152 13.152l0 109.728q0 8 5.152 13.152t13.152 5.152l128 0q142.848 0 234.272-128.576zM1024.064 80.576q0-8-5.152-13.152l-182.848-182.848q-5.152-5.152-13.152-5.152-7.424 0-12.864 5.44t-5.44 12.864l0 109.728q-18.272 0-48.576-0.288t-46.272-0.576-41.728 0.576-40.576 2.848-36.576 6.016-36 10.56-33.152 16.288-33.728 22.848-31.424 30.56-32 39.712q33.728 53.152 77.728 156 12.576-25.728 21.152-41.44t23.136-36.288 29.152-32.288 36-20 46.56-8.288l146.272 0 0 109.728q0 8 5.152 13.152t13.152 5.152q6.848 0 13.728-5.728l182.272-182.272q5.152-5.152 5.152-13.152zM1024.064 592.576q0-8-5.152-13.152l-182.848-182.848q-5.152-5.152-13.152-5.152-7.424 0-12.864 5.44t-5.44 12.864l0 109.728-146.272 0q-27.424 0-49.728-8.576t-39.424-25.728-29.152-35.136-25.728-44.288q-18.272-35.424-44.576-97.728-16.576-37.728-28.288-63.424t-30.848-60-36.576-57.152-42.272-47.424-51.424-39.136-60.864-24-73.152-9.44l-128 0q-8 0-13.152 5.152t-5.152 13.152l0 109.728q0 8 5.152 13.152t13.152 5.152l128 0q27.424 0 49.728 8.576t39.424 25.728 29.152 35.136 25.728 44.288q18.272 35.424 44.576 97.728 16.576 37.728 28.288 63.424t30.848 60 36.576 57.152 42.272 47.424 51.424 39.136 60.864 24 73.152 9.44l146.272 0 0 109.728q0 8 5.152 13.152t13.152 5.152q6.848 0 13.728-5.728l182.272-182.272q5.152-5.152 5.152-13.152z"  horiz-adv-x="1025" />

    
    <glyph glyph-name="sequence" unicode="&#59668;" d="M0.002053 767.9979470000001l127.998974 0 0-127.998974L0.002053 639.998974 0.002053 767.9979470000001 0.002053 767.9979470000001zM256.007184 767.9979470000001l767.989737 0 0-127.998974L256.001026 639.998974 256.007184 767.9979470000001 256.007184 767.9979470000001zM0.002053 447.999487l127.998974 0 0-127.998974L0.002053 320.00051299999996 0.002053 447.999487 0.002053 447.999487zM256.007184 447.999487l767.989737 0 0-127.998974L256.001026 320.00051299999996 256.007184 447.999487 256.007184 447.999487zM0.002053 128.00102600000002l127.998974 0 0-127.998974L0.002053 0.002053000000046268 0.002053 128.00102600000002 0.002053 128.00102600000002zM256.007184 128.00102600000002l767.989737 0 0-127.998974L256.001026 0.002053000000046268 256.007184 128.00102600000002 256.007184 128.00102600000002z"  horiz-adv-x="1024" />

    
    <glyph glyph-name="right-circle" unicode="&#58912;" d="M548.45119 574.412724c-11.722996 11.680017-30.732955 11.680017-42.455951 0-11.720949-11.680017-11.720949-30.638811 0-42.309618L624.568798 413.919427 332.09663 413.919427c-16.579607 0-30.020734-13.395078-30.020734-29.924543 0-16.520255 13.441127-29.915333 30.020734-29.915333l292.456818 0L505.995239 235.90712699999995c-11.720949-11.69946-11.720949-30.629601 0-42.319851 11.722996-11.689227 30.732955-11.689227 42.455951 0l169.81357 169.257915c11.722996 11.689227 11.722996 30.629601 0 42.329061L548.45119 574.412724zM512.212848 832.815959c-248.690012 0-450.293613-200.944592-450.293613-448.820052 0-247.866251 201.603601-448.810842 450.293613-448.810842S962.504414 136.12965599999995 962.504414 383.995907C962.504414 631.871367 760.90286 832.815959 512.212848 832.815959zM512.212848-4.97301200000004c-215.530798 0-390.253168 174.149319-390.253168 388.973012s174.72237 388.973012 390.253168 388.973012 390.253168-174.149319 390.253168-388.973012S727.743646-4.97301200000004 512.212848-4.97301200000004z"  horiz-adv-x="1024" />

    
    <glyph glyph-name="favorite-filled" unicode="&#58981;" d="M575.970972-127.99998000000005c-33.93477 0-67.071454 13.836757-90.91023 37.950445L102.776318 295.351491C36.522587 361.721639 0 450.041246 0 543.99935c0 94.028234 36.603938 182.405348 103.063854 248.866666C169.515353 859.37362 257.935949 896 352.048339 896c84.266062 0 157.403808-29.020021 222.988494-88.618363C640.864171 866.971563 714.66956 896 800.008619 896c94.014208 0 182.415166-36.62638 248.887705-103.133984 66.506202-66.472539 103.131179-154.860874 103.131179-248.866666 0-93.94548-36.591315-182.323997-103.030191-248.876484L666.867176-90.15332799999999C643.064867-114.19969000000003 609.926781-127.99998000000005 575.970972-127.99998000000005"  horiz-adv-x="1153" />

    
    <glyph glyph-name="music" unicode="&#58940;" d="M790.528 883.712c-38.912-8.192-313.344-57.344-374.784-71.68-71.68-16.384-71.68-34.816-71.68-159.744s2.048-395.264 2.048-430.08c0-61.44-14.336-92.16-55.296-92.16-32.768 0-81.92-2.048-106.496-2.048-124.928 0-147.456-253.952 28.672-253.952 20.48 0 102.4 0 131.072 8.192s83.968 30.72 83.968 102.4c0 61.44 2.048 438.272 0 507.904-2.048 67.584 28.672 69.632 55.296 75.776 18.432 4.096 266.24 55.296 329.728 69.632 51.2 12.288 43.008-34.816 43.008-47.104s0-116.736 0-290.816c0-55.296-22.528-61.44-34.816-61.44-36.864 2.048-92.16 2.048-122.88-6.144-157.696-45.056-102.4-258.048 14.336-258.048 71.68 0 110.592-6.144 151.552 10.24 43.008 18.432 73.728 61.44 73.728 112.64 0 53.248 2.048 641.024 2.048 735.232s-112.64 57.344-149.504 51.2z"  horiz-adv-x="1024" />

    
    <glyph glyph-name="dismiss" unicode="&#58963;" d="M512 793.6c226.304 0 409.6-183.296 409.6-409.6s-183.296-409.6-409.6-409.6-409.6 183.296-409.6 409.6 183.296 409.6 409.6 409.6zM768 230.4l-153.6 153.6 153.6 153.6-102.4 102.4-153.6-153.6-153.6 153.6-102.4-102.4 153.6-153.6-153.6-153.6 102.4-102.4 153.6 153.6 153.6-153.6z"  horiz-adv-x="1024" />

    
    <glyph glyph-name="ok-circle" unicode="&#58945;" d="M542.931556-56.23298799999998C309.865348-56.23298799999998 120.267111 133.36524899999995 120.267111 366.431457S309.865348 789.095901 542.931556 789.095901C775.974855 789.095901 965.573092 599.497664 965.573092 366.431457S775.974855-56.23298799999998 542.931556-56.23298799999998zM542.931556 696.797575C360.76888 696.797575 212.565437 548.594132 212.565437 366.431457c0-182.184629 148.204397-330.366118 330.366118-330.366118S873.274766 184.24682800000005 873.274766 366.431457C873.274766 548.594132 725.093276 696.797575 542.931556 696.797575zM534.908976 181.542727L337.829361 310.34498499999995 388.305276 387.590832 515.259621 304.666659 686.786292 518.646667 758.804339 460.91559Z"  horiz-adv-x="1034" />

    
    <glyph glyph-name="download" unicode="&#58882;" d="M859.990016 261.90336l0-139.674624c0-39.171072-30.993408-70.9376-69.229568-70.9376L236.429312 51.29113600000005c-38.23616 0-69.229568 31.766528-69.229568 70.9376L167.199744 261.90336l-101.376 0 0-173.45024c0-78.331904 68.68992-141.860864 145.16224-141.860864l617.2416 0c76.473344 0 138.464256 63.52896 138.464256 141.860864L966.69184 261.90336 859.990016 261.90336zM754.766848 512.356352l-135.146496-1.11104L618.540032 829.292544 409.6256 829.292544l0-318.047232L274.47296 511.245312l240.146432-319.127552L754.766848 512.356352z"  horiz-adv-x="1024" />

    
    <glyph glyph-name="rank" unicode="&#58881;" d="M90.125 18.234000000000037h229.922v530.297h-229.922v-530.297zM396.828 18.234000000000037h229.922v723.094h-229.922v-723.094zM699.313 410.156v-391.922h234.563v391.922h-234.563zM699.313 410.156z"  horiz-adv-x="1024" />

    
    <glyph glyph-name="pause" unicode="&#59125;" d="M469.333333 48.995556c0-70.257778-56.96-127.217778-127.232-127.217778l-1.521778 0C270.293333-78.222222 213.333333-21.262222 213.333333 48.995556L213.333333 719.004444c0 70.257778 56.96 127.217778 127.232 127.217778l1.521778 0C412.373333 846.222222 469.333333 789.262222 469.333333 719.004444L469.333333 48.995556zM412.444444 719.004444C412.444444 757.845333 380.956444 789.333333 342.101333 789.333333l-1.521778 0C301.710222 789.333333 270.222222 757.845333 270.222222 719.004444l0-669.994667c0-38.840889 31.488-70.328889 70.343111-70.328889l1.521778 0c38.855111 0 70.343111 31.488 70.343111 70.328889L412.430222 719.004444zM312.888889 604.444444c-7.864889 0-14.222222 6.357333-14.222222 14.222222l0 56.888889c0 7.864889 6.357333 14.222222 14.222222 14.222222 7.850667 0 14.222222-6.357333 14.222222-14.222222l0-56.888889C327.111111 610.801778 320.739556 604.444444 312.888889 604.444444zM312.888889 561.777778c-7.864889 0-14.222222 6.357333-14.222222 14.222222l0 5.888c0 7.864889 6.357333 14.222222 14.222222 14.222222 7.850667 0 14.222222-6.357333 14.222222-14.222222L327.111111 576C327.111111 568.135111 320.739556 561.777778 312.888889 561.777778zM810.666667 48.995556c0-70.257778-56.974222-127.217778-127.232-127.217778l-1.521778 0c-70.257778 0-127.232 56.96-127.232 127.217778L554.680889 719.004444c0 70.257778 56.974222 127.217778 127.232 127.217778l1.521778 0C753.692444 846.222222 810.666667 789.262222 810.666667 719.004444L810.666667 48.995556zM753.777778 719.004444C753.777778 757.845333 722.275556 789.333333 683.434667 789.333333l-1.521778 0C643.057778 789.333333 611.555556 757.845333 611.555556 719.004444l0-669.994667c0-38.840889 31.502222-70.328889 70.343111-70.328889l1.521778 0c38.840889 0 70.343111 31.488 70.343111 70.328889L753.763556 719.004444z"  horiz-adv-x="1024" />

    
    <glyph glyph-name="comment" unicode="&#59028;" d="M256.000712 497.750644C220.653727 497.750644 191.999822 468.645728 191.999822 432.728786 191.999822 396.806264 220.653727 367.69995300000005 256.000712 367.69995300000005 291.343424 367.69995300000005 319.99733 396.806264 319.99733 432.728786 319.99733 468.645728 291.343424 497.750644 256.000712 497.750644L256.000712 497.750644 256.000712 497.750644ZM512.002849 497.750644C476.655863 497.750644 448.000534 468.645728 448.000534 432.728786 448.000534 396.806264 476.660136 367.69995300000005 512.002849 367.69995300000005 547.344137 367.69995300000005 575.999466 396.806264 575.999466 432.728786 575.999466 468.645728 547.344137 497.750644 512.002849 497.750644L512.002849 497.750644 512.002849 497.750644ZM768.003562 497.750644C732.656574 497.750644 704.00267 468.645728 704.00267 432.728786 704.00267 396.806264 732.656574 367.69995300000005 768.003562 367.69995300000005 803.346271 367.69995300000005 832.000176 396.806264 832.000176 432.728786 832.000176 468.645728 803.346271 497.750644 768.003562 497.750644L768.003562 497.750644 768.003562 497.750644ZM127.997507 822.857143C57.313507 822.857143 0 764.62499 0 692.806452L0 205.15019099999995C0 133.32607299999995 58.594009 67.12679100000003 130.907481 67.12679100000003L325.968258 67.12679100000003C359.969221 31.652080999999953 486.312565-94.61073899999997 486.312565-94.61073899999997 500.499343-108.80543499999999 522.99445-108.47779100000002 536.759928-93.74277500000005 536.759928-93.74277500000005 626.340718 3.3744309999999587 693.469508 67.12679100000003L893.09252 67.12679100000003C965.405989 67.12679100000003 1024 133.33165299999996 1024 205.15019099999995L1024 692.806452C1024 764.62499 966.692191 822.857143 896.002494 822.857143L127.997507 822.857143 127.997507 822.857143ZM893.09252 131.566914L696.781152 131.566914C672.999992 131.566914 651.623156 107.61670900000001 651.623156 107.61670900000001L537.611356-9.884517999999957C523.468162-24.460581000000047 500.404798-24.008527999999956 487.052412-9.884517999999957L375.970511 107.61670900000001C375.970511 107.61670900000001 349.719506 131.566914 327.218848 131.566914L130.907481 131.566914C94.748608 131.566914 64.002315 169.24440900000002 64.002315 205.15019099999995L64.002315 692.806452C64.002315 728.723394 92.656219 757.835285 127.997507 757.835285L896.002494 757.835285C931.343777 757.835285 960.003387 728.723394 960.003387 692.806452L960.003387 205.15019099999995C960.003387 169.24440900000002 929.251394 131.566914 893.09252 131.566914L893.09252 131.566914Z"  horiz-adv-x="1024" />

    
    <glyph glyph-name="prev" unicode="&#58909;" d="M957.081 98.79200000000003c0-81.3-50.878-104.939-113.039-52.556l-287.702 242.4c-62.161 52.439-62.161 138.178 0 190.557l287.701 242.462c62.161 52.439 113.039 28.739 113.039-52.561v-570.302zM514.282 98.79200000000003c0-81.3-50.881-104.939-113.042-52.556l-287.701 242.4c-62.161 52.439-62.161 138.178 0 190.557l287.701 242.462c62.161 52.439 113.042 28.739 113.042-52.561v-570.302z"  horiz-adv-x="1024" />

    
    <glyph glyph-name="next" unicode="&#58915;" d="M66.92 669.12c0 81.3 50.88 104.94 113.04 52.56l287.7-242.4c62.16-52.44 62.16-138.18 0-190.56l-287.7-242.46c-62.16-52.44-113.04-28.74-113.04 52.56v570.3zM509.72 669.12c0 81.3 50.88 104.94 113.04 52.56l287.7-242.4c62.16-52.44 62.16-138.18 0-190.56l-287.7-242.46c-62.16-52.44-113.04-28.74-113.04 52.56v570.3z"  horiz-adv-x="1024" />

    
    <glyph glyph-name="delete" unicode="&#58900;" d="M609.505 798.462h-195.041c-0.222 0.004-0.483 0.006-0.746 0.006-13.222 0-25.17-5.453-33.718-14.233-8.831-8.588-14.304-20.569-14.304-33.828 0-0.282 0.002-0.564 0.007-0.845l-0.001-48.572h292.562v48.712c0.003 0.212 0.005 0.462 0.005 0.713 0 13.247-5.452 25.221-14.234 33.801-8.567 8.8-20.516 14.254-33.738 14.254-0.279 0-0.558-0.002-0.835-0.007zM804.547 18.297v585.124h-585.124v-585.124c0-13.36 4.779-24.868 14.287-34.425 8.589-8.849 20.595-14.34 33.883-14.34 0.225 0 0.449 0.002 0.673 0.005l487.57-0c13.409 0 24.965 4.827 34.425 14.336 8.847 8.528 14.341 20.482 14.341 33.718 0 0.248-0.002 0.496-0.006 0.744zM414.464 895.983h195.041c0.668 0.011 1.456 0.018 2.245 0.018 39.681 0 75.531-16.401 101.141-42.794 26.491-25.684 42.911-61.552 42.911-101.257 0-0.756-0.006-1.511-0.018-2.264l0.001-48.647h195.041c13.409 0 24.965-4.876 34.425-14.238 8.849-8.582 14.342-20.581 14.342-33.864 0-0.266-0.002-0.531-0.007-0.796 0.001-13.418-4.729-24.828-14.335-34.482-8.611-8.791-20.604-14.241-33.869-14.241-0.195 0-0.39 0.001-0.585 0.004l-48.731-0v-585.075c0.010-0.64 0.016-1.394 0.016-2.151 0-39.704-16.42-75.573-42.84-101.186-25.708-26.549-61.628-43.008-101.392-43.008-0.726 0-1.451 0.005-2.174 0.016l-487.494-0.001c-0.626-0.010-1.364-0.016-2.104-0.016-39.728 0-75.615 16.44-101.232 42.887-26.522 25.682-42.963 61.564-42.963 101.286 0 0.781 0.006 1.56 0.019 2.338l-0.002 585.007h-48.76c-0.17-0.002-0.37-0.003-0.57-0.003-13.267 0-25.267 5.429-33.898 14.187-8.826 8.613-14.297 20.619-14.297 33.903 0 0.22 0.001 0.439 0.004 0.658-0 13.473 4.778 24.835 14.286 34.538 8.632 8.735 20.612 14.145 33.856 14.145 0.217 0 0.434-0.001 0.651-0.004l195.009 0v48.76c0 40.422 14.287 74.847 42.909 103.421 25.626 26.456 61.475 42.878 101.16 42.878 0.778 0 1.554-0.006 2.329-0.019zM560.745 408.233c-0 0.058-0 0.126-0 0.195 0 26.903 21.809 48.712 48.712 48.712 0.017 0 0.035-0 0.052-0 26.913 0 48.758-21.357 48.758-48.907v-243.509c0-0.058 0-0.126 0-0.195 0-26.903-21.809-48.712-48.712-48.712-0.017 0-0.035 0-0.052 0-26.913-0-48.758 21.357-48.758 48.907v243.509zM365.703 408.233c-0 0.058-0 0.126-0 0.195 0 26.903 21.809 48.712 48.712 48.712 0.017 0 0.035-0 0.052-0 26.913 0 48.758-21.357 48.758-48.907v-243.509c0-0.058 0-0.126 0-0.195 0-26.903-21.809-48.712-48.712-48.712-0.017 0-0.035 0-0.052 0-26.913-0-48.758 21.357-48.758 48.907v243.509z"  horiz-adv-x="1024" />

    
    <glyph glyph-name="loop" unicode="&#59036;" d="M881.507745 383.437194c-15.246927 0-27.526332-12.381733-27.526332-27.526332 0-151.548316-123.203358-274.854002-274.547017-274.854002H444.667932c-151.445988 0-274.547017 123.305686-274.547017 274.854002v1.330269c0 151.548316 123.203358 274.854002 274.547017 274.854002h293.375438v-54.848006l142.645748 82.476666-142.645748 82.476667V687.250125H444.667932c-181.735185 0-329.59968-148.069152-329.59968-330.008994v-1.330269c0-181.939842 147.864495-330.008994 329.59968-330.008993h134.766464c181.735185 0 329.59968 148.069152 329.59968 330.008993 0 15.144599-12.279404 27.526332-27.526331 27.526332z"  horiz-adv-x="1024" />

    
    <glyph glyph-name="prev_cicle" unicode="&#58923;" d="M511.715 891.511C230.546 891.511 2.62 663.585 2.62 382.41499999999996c0-281.156 227.926-509.094 509.095-509.094 281.162 0 509.095 227.938 509.095 509.094 0 281.17-227.933 509.096-509.095 509.096z m-0.284-962.535c-251.048 0-454.56 203.519-454.56 454.566 0 251.036 203.512 454.554 454.56 454.554S965.99 634.577 965.99 383.54200000000003c0-251.047-203.511-454.566-454.559-454.566z m155.544 692.583c-9.142 0.049-17.19-4.477-22.013-11.423l-248.703-204.24a26.27 26.27 0 0 1-5.878-4.469c-10.281-10.393-10.281-27.231 0-37.611l0.464-0.377c0.041-0.041 0.078-0.085 0.119-0.126a26.8 26.8 0 0 1 4.697-3.778L645.809 156.70000000000005c4.934-6.635 12.816-10.96 21.677-10.999 0.539-0.003 1.073 0.014 1.604 0.041a26.082 26.082 0 0 1 17.872 7.769c0.429 0.433 0.832 0.882 1.225 1.337 3.832 4.329 6.232 9.908 6.448 16.115 0.033 0.657 0.036 1.315 0.022 1.973l-0.226 421.591c-0.078 14.847-12.606 26.953-27.456 27.032zM451.557 382.005l188.697 154.957 0.17-308.093-188.867 153.136z m-96.826 211.872c-14.854 0.08-26.833-11.906-26.754-26.754l0.232-367.439c0.073-14.861 12.178-26.966 27.032-27.031 14.849-0.08 27.251 11.468 27.179 26.316l-0.108 171.444-0.124 196.431c-0.079 14.848-12.608 26.954-27.457 27.033z"  horiz-adv-x="1024" />

    
    <glyph glyph-name="right_cicle" unicode="&#58984;" d="M512 896C228.266667 896 0 667.733333 0 384s228.266667-512 512-512 512 228.266667 512 512S795.733333 896 512 896z m0-936.533333c-236.8 0-428.8 192-428.8 428.8 0 236.8 192 428.8 428.8 428.8s428.8-192 428.8-428.8c0-236.8-192-428.8-428.8-428.8zM657.066667 409.6l-185.6 185.6c-17.066667 17.066667-44.8 17.066667-59.733334 0-17.066667-17.066667-17.066667-44.8 0-59.733333l157.866667-157.866667-157.866667-157.866667c-17.066667-17.066667-17.066667-44.8 0-59.733333 17.066667-17.066667 44.8-17.066667 59.733334 0l185.6 185.6c8.533333 8.533333 12.8 19.2 12.8 32s-4.266667 23.466667-12.8 32z"  horiz-adv-x="1024" />

    
    <glyph glyph-name="play_circle" unicode="&#58918;" d="M512 824.20622222c242.80177778 0 440.20622222-197.51822222 440.20622222-440.20622222S754.80177778-56.20622221999997 512-56.20622221999997 71.79377778 141.19822222000005 71.79377778 384 269.19822222 824.20622222 512 824.20622222z m0 69.51822223C230.51377778 893.72444445 2.27555555 665.48622222 2.27555555 384s228.23822222-509.72444445 509.72444445-509.72444445 509.72444445 228.23822222 509.72444445 509.72444445S793.48622222 893.72444445 512 893.72444445M413.35466667 147.11466667000002c-33.10933333 0-57.00266667 26.624-57.00266667 63.37422222v347.02222222c0 36.75022222 24.00711111 63.37422222 57.00266667 63.37422222 11.71911111 0 23.66577778-3.41333333 35.27111111-10.12622222l300.60088889-173.51111111c21.61777778-12.40177778 33.90577778-31.85777778 33.90577778-53.248 0-21.39022222-12.40177778-40.84622222-33.90577778-53.248L448.62577778 157.24088888999995c-11.60533333-6.71288889-23.43822222-10.12622222-35.27111111-10.12622222z m12.62933333 396.40177778l-0.11377778-319.0328889 276.36622223 159.40266667-276.25244445 159.63022223z"  horiz-adv-x="1024" />

    
    <glyph glyph-name="ok" unicode="&#59105;" d="M844.8 556.8c-25.6 25.6-64 25.6-89.6 0l-320-320-134.4 140.8c-25.6 25.6-64 25.6-89.6 0-25.6-25.6-25.6-64 0-89.6l179.2-179.2c12.8-12.8 25.6-19.2 44.8-19.2 19.2 0 32 6.4 44.8 19.2l364.8 364.8c25.6 19.2 25.6 57.6 0 83.2z"  horiz-adv-x="1024" />

    
    <glyph glyph-name="loop_only" unicode="&#58902;" d="M926.828 314.677v-85.834c0-105.633-85.834-171.639-193.655-171.639h-442.333c-105.633 0-193.655 63.822-193.655 171.639v171.639c0 105.633 85.834 171.639 193.655 171.639h477.537l-114.431-114.431 41.82-41.82 189.257 189.257-189.257 189.257-41.82-41.82 118.826-118.826h-514.949c-121.034 0-220.06-99.031-220.06-220.06v-198.061c0-121.034 99.031-220.06 220.06-220.06h506.151c121.034 0 220.06 99.031 220.06 220.06v99.031h-57.212zM548.31 176.03599999999994h-57.212v213.465c-19.81-19.81-44.019-33.01-72.619-41.82v50.619c15.407 4.398 30.817 13.193 48.414 26.412 17.61 13.193 28.609 28.609 35.211 46.21h46.21v-294.895z"  horiz-adv-x="1024" />

    
    <glyph glyph-name="add" unicode="&#59103;" d="M512 64a32 32 0 0 1 32 32v256h256a32 32 0 0 1 0 64h-256V672a32 32 0 0 1-64 0v-256H224a32 32 0 0 1 0-64h256v-256a32 32 0 0 1 32-32"  horiz-adv-x="1024" />

    
    <glyph glyph-name="close" unicode="&#59113;" d="M544.448 396.8l284.576 284.576a32 32 0 0 1-45.248 45.248L499.2 442.048 214.624 726.624a32 32 0 0 1-45.248-45.248l284.576-284.576-284.576-284.576a32 32 0 0 1 45.248-45.248l284.576 284.576 284.576-284.576a31.904 31.904 0 0 1 45.248 0 32 32 0 0 1 0 45.248L544.448 396.8z"  horiz-adv-x="1024" />

    
    <glyph glyph-name="chose" unicode="&#59016;" d="M445.037819 730.515351h966.070238c67.505994 0 67.68088 104.931597 0 104.931597H445.037819c-67.505994 0-67.68088-104.931597 0-104.931597zM445.037819 336.322318h966.070238c67.505994 0 67.68088 104.931597 0 104.931597H445.037819c-67.505994 0-67.68088-104.931597 0-104.931597zM445.037819-59.61957600000005h966.070238c67.505994 0 67.68088 104.931597 0 104.931597H445.037819c-67.505994 0-67.68088-104.931597 0-104.931597zM7.822831 785.429554l90.940717-94.78821C122.548044 666.157305 159.099217 703.582908 135.839379 727.717175L44.898662 822.505385C21.463938 846.814538-15.611893 809.738707 7.822831 785.429554zM254.58697 888.087633L99.98775 728.4167190000001C76.553027 703.582908 113.628858 666.856849 137.063581 691.340888l154.424334 159.670914C314.922639 875.146069 278.021694 912.396786 254.58697 888.087633zM7.647945 383.891308l90.940717-94.788209C122.548044 264.793946 158.924331 301.34511899999995 135.489607 326.35381600000005l-90.940717 94.788209c-23.434723 24.484039-60.510554-12.766678-37.075831-37.075831zM254.237198 486.724274L99.812864 327.05336c-23.434723-24.309153 13.641108-61.384984 37.075831-37.075831l154.424334 159.670914c23.609609 24.134267-13.466222 61.55987-37.075831 37.075831zM244.09381-75.53420100000005H54.867164l26.232899-26.2329V87.28466000000003l-26.232899-26.232899h189.226646l-26.232899 26.232899v-189.051761a26.232899 26.232899 0 0 1 52.465799 0V87.28466000000003a26.582671 26.582671 0 0 1-26.2329 26.2329H54.867164a26.582671 26.582671 0 0 1-26.2329-26.2329v-189.051761a26.582671 26.582671 0 0 1 26.2329-26.232899h189.226646a26.232899 26.232899 0 0 1 0 52.465799z"  horiz-adv-x="1461" />

    
    <glyph glyph-name="thumb_filled" unicode="&#59504;" d="M710.549333 511.189333a12409.045333 12409.045333 0 0 1 47.466667 0.32l8.746667 0.085334c83.989333 0.618667 141.44-67.584 126.72-150.229334L847.296 101.97333300000003c-10.026667-56.448-63.914667-101.546667-121.130667-101.589333L298.624 0a42.730667 42.730667 0 0 0-42.666667 42.410667l-0.810666 383.978666a42.666667 42.666667 0 0 0 42.026666 42.666667l3.157334 0.064c5.226667 0.042667 11.797333 0.042667 19.626666 0 91.946667-0.768 170.88 86.698667 170.709334 170.944-0.149333 86.741333 39.786667 126.762667 106.453333 127.573333 62.250667 0.746667 106.602667-59.605333 107.349333-149.12 0.213333-26.602667-6.293333-73.237333-14.506666-107.434666 6.186667 0 13.077333 0.042667 20.586666 0.085333z m-497.706666-63.232L213.333333 21.375999999999976A21.312 21.312 0 0 0 191.786667 0H149.525333A21.333333 21.333333 0 0 0 128 21.375999999999976l0.042667 426.581333A21.269333 21.269333 0 0 0 149.44 469.333333h41.984c11.669333 0 21.418667-9.578667 21.418667-21.376z"  horiz-adv-x="1024" />

    
    <glyph glyph-name="thumb" unicode="&#59505;" d="M757.76 43.09333300000003c36.906667 0.021333 72.832 30.208 79.296 66.56l51.093333 287.04c10.069333 56.469333-27.093333 100.522667-84.373333 100.096l-10.261333-0.085333a19972.266667 19972.266667 0 0 0-52.842667-0.362667 3552.853333 3552.853333 0 0 0-56.746667 0l-30.997333 0.426667 11.498667 28.8c10.24 25.642667 21.76 95.744 21.504 128.021333-0.618667 73.045333-31.36 114.858667-69.290667 114.410667-46.613333-0.554667-69.461333-23.466667-69.333333-91.136 0.213333-112.661333-102.144-226.112-225.130667-225.109333a1214.08 1214.08 0 0 1-20.629333 0l-3.52-0.042667c-0.192 0 0.64-409.109333 0.64-409.109333 0 0.085333 459.093333 0.490667 459.093333 0.490666z m-17.301333 495.914667a15332.288 15332.288 0 0 1 52.693333 0.362667l10.282667 0.085333c84.010667 0.618667 141.44-67.52 126.72-150.250667L879.061333 102.18666700000006c-10.090667-56.661333-63.68-101.696-121.258666-101.76l-458.922667-0.384A42.666667 42.666667 0 0 0 256 42.45333300000004l-0.853333 409.173334a42.624 42.624 0 0 0 42.346666 42.730666l3.669334 0.042667c5.909333 0.064 13.12 0.064 21.333333 0 98.176-0.789333 182.293333 92.437333 182.144 182.378667C504.469333 767.978667 546.24 809.8133330000001 616.106667 810.666667c65.173333 0.768 111.68-62.506667 112.448-156.714667 0.256-28.48-6.848-78.826667-15.701334-115.050667 8.021333 0 17.28 0.042667 27.584 0.106667zM170.666667 448v-405.333333h23.466666a21.333333 21.333333 0 0 0 0-42.666667H154.837333A26.709333 26.709333 0 0 0 128 26.66666699999996v437.333333c0 14.784 12.074667 26.666667 26.773333 26.666667h38.912a21.333333 21.333333 0 0 0 0-42.666667H170.666667z"  horiz-adv-x="1024" />

    
    <glyph glyph-name="list" unicode="&#59536;" d="M106.666667 704a21.333333 21.333333 0 1 1 0-42.666667h85.333333a21.333333 21.333333 0 0 1 0 42.666667H106.666667z m0-298.666667a21.333333 21.333333 0 0 1 0-42.666666h85.333333a21.333333 21.333333 0 0 1 0 42.666666H106.666667z m0-298.666666a21.333333 21.333333 0 0 1 0-42.666667h85.333333a21.333333 21.333333 0 0 1 0 42.666667H106.666667zM320 704a21.333333 21.333333 0 0 1 0-42.666667h597.333333a21.333333 21.333333 0 0 1 0 42.666667H320z m0-298.666667a21.333333 21.333333 0 0 1 0-42.666666h597.333333a21.333333 21.333333 0 0 1 0 42.666666H320z m0-298.666666a21.333333 21.333333 0 0 1 0-42.666667h597.333333a21.333333 21.333333 0 0 1 0 42.666667H320z"  horiz-adv-x="1024" />

    
    <glyph glyph-name="share" unicode="&#59608;" d="M380.36396 329.701413l300.553318-205.558677a149.295574 149.295574 0 1 0-38.731537-76.865893L338.262608 255.18159400000002a149.295574 149.295574 0 1 0-13.180667 226.374746l318.938002 230.299087a149.295574 149.295574 0 1 0 43.082437-74.093261L375.501189 412.581785a149.039639 149.039639 0 0 0 4.905426-82.923028zM789.263209 682.593494a63.983817 63.983817 0 1 1 0 127.967635 63.983817 63.983817 0 0 1 0-127.967635z m0-725.149931a63.983817 63.983817 0 1 1 0 127.967635 63.983817 63.983817 0 0 1 0-127.967635z m-554.526418 341.247027a63.983817 63.983817 0 1 1 0 127.967634 63.983817 63.983817 0 0 1 0-127.967634z"  horiz-adv-x="1024" />

    
    <glyph glyph-name="icon_search" unicode="&#58889;" d="M917.6 27.4l-150.2 150c24.2 29.1 44.1 61.9 58.9 97.2 18.3 44.4 28.7 93.7 28.7 144.5 0 50.6-9.8 98.9-27.8 143.1l-0.8 2.2c-18.8 45.6-46.7 86-80.4 120.6l-1.7 2c-34.8 34.5-76.7 63.1-122.6 82.4h-0.5c-44.4 18.8-93.7 28.1-144.5 28.1-104.6 0-199.3-41.9-267.9-110.5-34.5-34.5-62.9-76.2-81.9-123.1-18.8-44.7-28.9-93.5-28.9-144.8 0-50.3 10.1-98.4 27.9-142.6l1-2c19-46.1 47.4-88 81.9-122.8h0.5c34.5-35 76.4-62.7 122.8-82.4 44.4-18.3 93.5-28.6 144.6-28.6 51.3 0 100.1 10.4 145 28.6 35 15 67.6 34.5 96.7 58.7l150.2-150c13.6-13.3 35.5-13.3 49.1 0.3 13.8 13.6 13.8 35.5-0.1 49.1zM695.1 200.5l-0.5-0.5c-28.4-27.6-62.4-50.8-99.7-66.3-36.5-15-76.7-23.7-118.4-23.7-41.9 0-82.1 8.7-118.4 23.7-37.5 15.5-71.5 38.7-100.4 66.8-28.4 28.6-51.6 62.9-66.9 100.7l-1 1.7c-14.8 35.5-22.7 74.7-22.7 116.2 0 42.4 8.4 82.4 23.7 118.4 15.3 37.5 38 71.5 66.9 100.6 56 55.7 133.4 90.3 218.8 90.3 41.7 0 81.9-8.4 118.4-23.2 37.5-15.5 71.5-38.7 100.1-67.1l1.7-1.8c27.9-28.4 50.1-61.4 65.3-98.9l0.8-1.5c14.5-36 22.4-75.5 22.4-116.9 0-41.5-7.9-81.4-23.2-117.9-15.1-37.9-38.2-71.9-66.9-100.6zM381.4 644.5c-15-5.9-29.1-13.3-41.4-22-13.3-9.1-25.7-18.5-36.5-29.8-11.3-11.6-21.4-23.7-30.1-36.5v-0.5c-8.9-12.8-16.3-26.4-22.2-41.5-4.9-10.1 0-22.2 10.9-26.9 10.4-4.5 22.7 0.5 26.9 11.1 5.2 12.1 11.3 23.7 19 34.5 7.4 10.9 15.5 21 24.7 30.1 9.4 8.9 19.7 17.8 30.6 25.2 10.8 7.1 22.7 13.3 34 18.3 10.6 4.7 15.6 16.8 10.9 27.6-4.1 10.4-16.4 15.4-26.8 10.4zM700.6 440.3c-11.3 0-20.7-9.4-20.7-21.2 0-26.4-4.9-53.3-15.3-77.5l-0.5-1c-9.9-23.7-24.2-45.9-43.9-65.1-19.2-19.5-41.9-34-65.9-43.9-24.4-10.6-51-15.5-77.7-15.5-11.6 0-20.7-9.6-20.7-21s9.1-20.7 20.7-20.7c31.6 0 63.6 6.2 93.7 18.5 29.1 12.1 56 29.6 79.4 53.3 23.2 22.9 40.7 50.1 52.5 78.2l0.5 1.5c12.6 29.6 18.7 61.7 18.7 93.3 0.1 11.7-9 21.1-20.8 21.1z"  horiz-adv-x="1024" />

    
    <glyph glyph-name="share_1" unicode="&#58888;" d="M1301.496183 691.677693a28.661578 28.661578 0 0 1 0 3.908397 45.163698 45.163698 0 0 1-1.085666 4.559796 51.46056 51.46056 0 0 1-1.519932 5.211196l-3.039864 4.342664a51.894826 51.894826 0 0 1-2.605598 4.776929 46.466497 46.466497 0 0 1-3.256997 4.342663l-2.171332 3.039865-150.473283 158.507209a49.940628 49.940628 0 0 1-63.18575 7.599661 45.597964 45.597964 0 0 1-7.165395-4.559796 49.723494 49.723494 0 0 1-1.954198-70.351146l43.426633-44.946564c-19.541985 1.519932-269.462256 18.890585-449.465649-146.347753-117.686175-108.566582-176.746395-267.508058-175.66073-474.001696a47.33503 47.33503 0 1 1 94.452927 0c0 178.266327 47.769296 313.757422 144.610687 403.216285 127.457167 117.469042 305.506361 123.983036 360.875318 122.680237v-1.954198l-51.46056-21.713316a53.631891 53.631891 0 0 1-8.25106-4.342664 49.723494 49.723494 0 0 1 46.249364-86.853265l202.585241 83.596268 3.256998 1.737065 4.776929 2.605598 4.12553 3.256998 3.039865 2.388464a46.900763 46.900763 0 0 1 3.908397 4.342664s1.737065 1.954198 2.605598 3.256997 1.954198 3.256997 2.822731 4.994063a34.089907 34.089907 0 0 1 1.954198 3.47413 40.386768 40.386768 0 0 1 1.954199 5.862596v3.039864a62.751484 62.751484 0 0 1 0 6.731128v2.822731 5.862596zM940.837998-128H110.737913a110.737913 110.737913 0 0 0-110.737913 110.737913V771.365564A110.737913 110.737913 0 0 0 110.737913 882.103478h607.972859a55.368957 55.368957 0 1 0 0-110.737914h-607.972859v-788.627651h830.100085v477.692961a55.368957 55.368957 0 1 0 110.737914 0v-477.692961a110.737913 110.737913 0 0 0-110.737914-110.737913z"  horiz-adv-x="1301" />

    
    <glyph glyph-name="icon-mine" unicode="&#58920;" d="M517.672462 654.618658m-241.381343 0a241.381342 241.381342 0 1 1 482.762685 0 241.381342 241.381342 0 1 1-482.762685 0ZM300.791325 355.004066h422.41735a241.381342 241.381342 0 0 0 0-482.762685H300.791325a241.381342 241.381342 0 0 0 0 482.762685z"  horiz-adv-x="1024" />

    
    <glyph glyph-name="icon_clear" unicode="&#58934;" d="M972.8 716.8H51.2c-15.36 0-25.6 12.8-25.6 25.6S35.84 768 51.2 768h921.6c15.36 0 25.6-10.24 25.6-25.6s-10.24-25.6-25.6-25.6z m-271.36 15.36c-15.36 0-25.6 10.24-25.6 25.6V768c0 12.8-10.24 25.6-25.6 25.6H373.76c-12.8 0-25.6-10.24-25.6-25.6v-10.24c0-15.36-10.24-25.6-25.6-25.6s-25.6 10.24-25.6 25.6V768c0 40.96 33.28 76.8 76.8 76.8h276.48c40.96 0 76.8-33.28 76.8-76.8v-10.24c0-15.36-12.8-25.6-25.6-25.6z m115.2-829.44h-601.6c-40.96 0-76.8 33.28-76.8 76.8v678.4c0 15.36 10.24 25.6 25.6 25.6s25.6-10.24 25.6-25.6v-680.96c0-12.8 10.24-25.6 25.6-25.6h599.04c12.8 0 25.6 10.24 25.6 25.6V657.92c0 15.36 10.24 25.6 25.6 25.6s25.6-10.24 25.6-25.6v-680.96c0-40.96-33.28-74.24-74.24-74.24zM514.56 71.68c-15.36 0-25.6 10.24-25.6 25.6V573.44c0 15.36 10.24 25.6 25.6 25.6s25.6-10.24 25.6-25.6v-478.72c0-12.8-10.24-23.04-25.6-23.04zM355.84 184.32c-15.36 0-25.6 10.24-25.6 25.6V496.64c0 15.36 10.24 25.6 25.6 25.6s25.6-10.24 25.6-25.6v-286.72c0-15.36-12.8-25.6-25.6-25.6z m320 0c-15.36 0-25.6 10.24-25.6 25.6V496.64c0 15.36 10.24 25.6 25.6 25.6s25.6-10.24 25.6-25.6v-286.72c0-15.36-10.24-25.6-25.6-25.6z"  horiz-adv-x="1024" />

    
    <glyph glyph-name="more" unicode="&#59014;" d="M873.730788 515.54312c60.476067 0 109.593684-49.015289 109.593685-109.593685 0-60.476067-49.117618-109.593684-109.593685-109.593684s-109.593684 49.117618-109.593684 109.593684 48.912961 109.593684 109.593684 109.593685z m-372.782252 0c60.476067 0 109.593684-49.015289 109.593684-109.593685 0-60.476067-49.117618-109.593684-109.593684-109.593684S391.354852 345.47336900000005 391.354852 405.949435s49.117618 109.593684 109.593684 109.593685zM259.862896 405.949435c0-60.476067-49.117618-109.593684-109.593684-109.593684s-109.491356 49.117618-109.491356 109.593684c0 60.578395 49.117618 109.593684 109.593684 109.593685s109.491356-49.117618 109.491356-109.593685z"  horiz-adv-x="1024" />

    
    <glyph glyph-name="broadcast" unicode="&#58880;" d="M349.026807-128l177.916435 308.852491 178.351439-308.852491H349.026807zM526.943242 895.99826a525.919242 525.919242 0 0 1-205.321656-1010.513151l33.060267 57.420463a460.668716 460.668716 0 1 0 344.957782 0l33.060267-57.420463A525.919242 525.919242 0 0 1 526.943242 895.99826zM442.987565 96.02680699999996l33.930274 60.465488a221.416786 221.416786 0 1 0 100.48581 0l32.625263-60.465488a286.667312 286.667312 0 1 1-168.346357 0z"  horiz-adv-x="1054" />

    
    <glyph glyph-name="singer" unicode="&#59021;" d="M512.816 365.29600000000005c-101.456 0-184 82.704-184 184.352 0 101.664 82.544 184.368 184 184.368s184-82.704 184-184.368c0-101.648-82.544-184.352-184-184.352z m0 336.736c-83.808 0-152-68.352-152-152.368s68.192-152.352 152-152.352 152 68.336 152 152.352-68.192 152.368-152 152.368zM730.72 19.008000000000038h-85.392v32h85.392a78.72 78.72 0 0 1 67.216 36.56 80.592 80.592 0 0 1 5.808 77.168c-51.472 114.512-165.2 188.496-289.76 188.496h-4.976c-124.576 0-238.304-73.984-289.76-188.496a80.688 80.688 0 0 1 5.792-77.168 78.72 78.72 0 0 1 67.232-36.56H376v-32h-83.728a111.632 111.632 0 0 0-94.096 51.168 112.528 112.528 0 0 0-8.112 107.68c56.608 125.968 181.792 207.376 318.944 207.376h4.976c137.136 0 262.336-81.408 318.96-207.376a112.56 112.56 0 0 0-8.128-107.68 111.68 111.68 0 0 0-94.096-51.168zM496 144h32v-128h-32zM524.096 122.12800000000004h-25.184a51.472 51.472 0 0 0-51.408 51.408V230.72000000000003a51.472 51.472 0 0 0 51.408 51.408h25.184a51.472 51.472 0 0 0 51.408-51.408v-57.184a51.472 51.472 0 0 0-51.408-51.408z m-25.184 128c-10.704 0-19.408-8.704-19.408-19.408v-57.184c0-10.704 8.704-19.408 19.408-19.408h25.184c10.704 0 19.408 8.704 19.408 19.408V230.72000000000003c0 10.704-8.704 19.408-19.408 19.408h-25.184z"  horiz-adv-x="1024" />

    
    <glyph glyph-name="collect" unicode="&#58919;" d="M142.31918 355.73287300000004l350.13559-373.653781c54.296613-63.852817 139.806023-63.883844 195.033436 1.054906l362.204951 388.670672c42.661625 48.866952 65.466202 112.130263 65.466203 182.902021a279.239726 279.239726 0 0 1-501.018122 169.653647 30.99561 30.99561 0 0 0-25.534922-12.131415 30.99561 30.99561 0 0 0-25.503895 12.131415A279.239726 279.239726 0 0 1 62.053272 554.706691c0-72.850542 28.792718-144.242832 77.411458-195.498835 1.054906-1.116959 1.985705-2.264944 2.85445-3.474983z m-54.606879-31.926409A349.732244 349.732244 0 0 0 0 554.706691C0 743.1935060000001 152.806184 895.99969 341.292999 895.99969c95.065613 0 183.708713-39.155615 247.313317-106.111096A340.486306 340.486306 0 0 0 835.95066 895.99969c188.486815 0 341.292999-152.806184 341.292999-341.292999 0-80.793361-25.069522-154.636755-72.198982-213.463257-1.147986-1.923651-2.482131-3.754223-4.095516-5.491715l-5.181449-5.553768c-2.699317-3.071637-5.491715-6.112247-8.315138-9.090804-0.620533-0.620533-1.210039-1.241065-1.861598-1.799545L733.810974-58.069375000000036c-79.055869-93.048882-209.553901-93.017855-287.616918-1.147985L90.783938 319.959161a31.243823 31.243823 0 0 0-3.102664 3.847303z"  horiz-adv-x="1179" />

    
    <glyph glyph-name="up" unicode="&#58925;" d="M910.222222 99.55555600000002c-17.066667 0-34.133333 5.688889-45.511111 17.066666L551.822222 486.4c-11.377778 5.688889-17.066667 11.377778-34.133333 11.377778-5.688889 0-22.755556-5.688889-28.444445-11.377778l-329.955555-364.088889c-22.755556-22.755556-56.888889-22.755556-79.644445-5.688889-22.755556 22.755556-22.755556 56.888889-5.688888 79.644445l329.955555 364.088889c28.444444 34.133333 73.955556 51.2 119.466667 51.2s85.333333-22.755556 119.466666-56.888889l312.888889-364.088889c22.755556-22.755556 17.066667-56.888889-5.688889-79.644445-11.377778-5.688889-28.444444-11.377778-39.822222-11.377777z"  horiz-adv-x="1024" />

    
    <glyph glyph-name="right" unicode="&#58926;" d="M312.888889-99.55555600000002c-17.066667 0-28.444444 5.688889-39.822222 17.066667-22.755556 22.755556-17.066667 56.888889 5.688889 79.644445l364.088888 329.955555c11.377778 11.377778 17.066667 22.755556 17.066667 34.133333 0 11.377778-5.688889 22.755556-17.066667 34.133334L273.066667 708.266667c-22.755556 22.755556-28.444444 56.888889-5.688889 79.644444 22.755556 22.755556 56.888889 28.444444 79.644444 5.688889l364.088889-312.888889c34.133333-28.444444 56.888889-73.955556 56.888889-119.466667s-17.066667-85.333333-51.2-119.466666l-364.088889-329.955556c-11.377778-5.688889-28.444444-11.377778-39.822222-11.377778z"  horiz-adv-x="1024" />

    
    <glyph glyph-name="down" unicode="&#58927;" d="M517.688889 99.55555600000002c-45.511111 0-85.333333 17.066667-119.466667 51.2L73.955556 514.8444440000001c-22.755556 22.755556-17.066667 56.888889 5.688888 79.644445 22.755556 22.755556 56.888889 17.066667 79.644445-5.688889l329.955555-364.088889c5.688889-5.688889 17.066667-11.377778 28.444445-11.377778s22.755556 5.688889 34.133333 17.066667l312.888889 364.088889c22.755556 22.755556 56.888889 28.444444 79.644445 5.688889 22.755556-22.755556 28.444444-56.888889 5.688888-79.644445L637.155556 156.44444399999998c-28.444444-39.822222-68.266667-56.888889-119.466667-56.888888 5.688889 0 0 0 0 0z"  horiz-adv-x="1024" />

    
    <glyph glyph-name="type" unicode="&#58901;" d="M319.9589381770759 900.8969551146233H162.63546920029165c-86.52790793723145 0-157.3234689767843-70.79556103955296-157.3234689767843-157.3234689767843v-157.3234689767843c0-86.52790793723145 70.79556103955296-157.3234689767843 157.3234689767843-157.3234689767843h157.3234689767843c86.52790793723145 0 157.3234689767843 70.79556103955296 157.3234689767843 157.3234689767843V743.573486137839c0 86.52790793723145-70.79556103955296 157.3234689767843-157.3234689767843 157.3234689767843z m550.6321414187455 0H713.2676106190374c-86.52790793723145 0-157.3234689767843-70.79556103955296-157.3234689767843-157.3234689767843v-157.3234689767843c0-86.52790793723145 70.79556103955296-157.3234689767843 157.3234689767843-157.3234689767843h157.3234689767843c86.52790793723145 0 157.3234689767843 70.79556103955296 157.3234689767843 157.3234689767843V743.573486137839c0 86.52790793723145-70.79556103955296 157.3234689767843-157.3234689767843 157.3234689767843zM319.9589381770759 350.26481369587816H162.63546920029165c-86.52790793723145 0-157.3234689767843-70.79556103955296-157.3234689767843-157.3234689767843v-157.3234689767843c0-86.52790793723145 70.79556103955296-157.3234689767843 157.3234689767843-157.3234689767843h157.3234689767843c86.52790793723145 0 157.3234689767843 70.79556103955296 157.3234689767843 157.3234689767843V192.94134471909354c0 86.52790793723145-70.79556103955296 157.3234689767843-157.3234689767843 157.3234689767843z m550.6321414187455 0H713.2676106190374c-86.52790793723145 0-157.3234689767843-70.79556103955296-157.3234689767843-157.3234689767843v-157.3234689767843c0-86.52790793723145 70.79556103955296-157.3234689767843 157.3234689767843-157.3234689767843h157.3234689767843c86.52790793723145 0 157.3234689767843 70.79556103955296 157.3234689767843 157.3234689767843V192.94134471909354c0 86.52790793723145-70.79556103955296 157.3234689767843-157.3234689767843 157.3234689767843z"  horiz-adv-x="1024" />

    
    <glyph glyph-name="playlist" unicode="&#59026;" d="M819.2 25.6a153.6 153.6 0 0 0-153.6-153.6h-102.4a153.6 153.6 0 0 0 0 307.2h102.4a153.6 153.6 0 0 0 51.2-8.704V844.8l307.2 51.2v-204.8l-204.8-34.304V25.6zM0 742.4h614.4v-102.4H0V742.4z m0-204.8h614.4v-102.4H0V537.6z m0-204.8h614.4v-102.4H0v102.4z m0-204.8h307.2v-102.4H0v102.4z"  horiz-adv-x="1024" />

    
    <glyph glyph-name="avoriate" unicode="&#58891;" d="M933.3248 770.9184c-55.808 59.6992-130.1504 92.5696-209.3312 92.5952h-0.0256c-79.1808 0-153.5232-32.896-209.3312-92.5952l-1.3568-1.4592-1.3568 1.4592c-55.808 59.6992-130.1504 92.5952-209.3312 92.5952S149.0432 830.6176 93.2352 770.9184c-114.1248-122.0864-114.1248-320.7168 0-442.8288l20.0704-21.4528 0.0256-0.0256 381.2352-407.808a25.6256 25.6256 0 0 1 37.376 0l381.312 407.8592 20.0448 21.4528c114.176 122.0864 114.176 320.7424 0.0256 442.8032z m-37.4016-407.8336l-20.0448-21.4528L513.28-46.233600000000024 150.7072 341.6064l-0.0256 0.0256-20.0704 21.4272c-96.1024 102.8096-96.1024 270.08 0 372.864C176.64 785.1776 237.696 812.3136 302.5664 812.3136c64.8448 0 125.9008-27.136 171.9296-76.3648l20.0704-21.4528c0.2048-0.2304 0.4864-0.2816 0.7168-0.512 0.2048-0.2048 0.2816-0.512 0.512-0.7168 1.1008-1.024 2.4576-1.4592 3.6608-2.2528 1.408-0.9216 2.7136-1.9968 4.2496-2.6112 1.6128-0.6656 3.2768-0.8192 4.9664-1.1264 1.536-0.2816 2.9952-0.7168 4.5568-0.7424 1.7664 0 3.4304 0.4608 5.1456 0.8192 1.4848 0.3072 2.9696 0.4352 4.4032 0.9984 1.6384 0.6656 3.0208 1.7664 4.5056 2.7648 1.152 0.768 2.432 1.1776 3.4816 2.1248 0.2304 0.2048 0.2816 0.4864 0.512 0.7168 0.2048 0.2048 0.512 0.2816 0.7168 0.512l20.0704 21.4528c46.0288 49.2288 107.0848 76.3648 171.9552 76.3648 64.8448 0 125.9008-27.136 171.9296-76.3648 96.1024-102.7584 96.1024-270.0288-0.0256-372.8384zM343.296 661.2224a107.8016 107.8016 0 0 1-107.0592-27.1872 108.544 108.544 0 0 1-25.6-111.8464 25.6 25.6 0 1 1 48.3584 16.8192 56.3712 56.3712 0 0 0 13.4656 58.8288 56.7552 56.7552 0 0 0 56.2944 14.2848 25.728 25.728 0 0 1 31.8208 17.28 25.6512 25.6512 0 0 1-17.28 31.8208z"  horiz-adv-x="1024" />

    
    <glyph glyph-name="play-mini" unicode="&#58890;" d="M512-128C229.216-128 0 101.216 0 384S229.216 896 512 896s512-229.216 512-512-229.216-512-512-512z m0 68.256c245.056 0 443.744 198.656 443.744 443.744S757.088 827.744 512 827.744C266.944 827.744 68.256 629.088 68.256 384S266.912-59.744 512-59.744zM447.328 307.84v152.288l152.416-76.16-152.416-76.16z m-17.696 232.608c-0.32 0.16-0.64 0.128-0.928 0.256-1.952 0.896-4.096 1.184-6.24 1.696-2.08 0.48-4.096 1.184-6.144 1.248-0.352 0-0.672 0.192-1.024 0.192-1.632 0-3.04-0.704-4.64-0.96-2.24-0.32-4.416-0.512-6.528-1.28-2.016-0.768-3.712-1.984-5.472-3.104-1.696-1.056-3.424-1.952-4.896-3.264-1.76-1.6-2.976-3.584-4.32-5.536-0.864-1.248-2.048-2.144-2.784-3.552-0.16-0.32-0.128-0.64-0.256-0.96-0.896-1.92-1.152-4-1.632-6.112s-1.216-4.128-1.28-6.272c0-0.352-0.192-0.608-0.192-0.96v-255.744c0-0.352 0.192-0.64 0.192-0.96 0.064-2.144 0.768-4.16 1.28-6.304 0.48-2.08 0.768-4.16 1.632-6.08 0.128-0.32 0.096-0.672 0.256-0.96 1.504-3.04 3.52-5.632 5.728-7.936 0.48-0.48 1.056-0.8 1.568-1.248 2.272-2.08 4.8-3.776 7.488-5.088 0.96-0.416 1.856-0.832 2.88-1.216 3.488-1.28 7.136-2.176 10.912-2.208h0.096l0.192 0.032a31.744 31.744 0 0 1 13.248 3.136c0.256 0.128 0.576 0.064 0.864 0.192l255.936 127.872a32 32 0 0 1 0 57.216l-255.936 127.84z"  horiz-adv-x="1024" />

    
    <glyph glyph-name="listen" unicode="&#58885;" d="M898.397091 337.91999999999996v93.323636c0.232727 0.698182 0.232727 1.629091 0.232727 2.327273 0 205.498182-158.487273 374.458182-357.934545 387.025455-222.72 13.730909-405.410909-168.96-405.410909-395.636364V337.91999999999996c-52.363636-36.538182-83.781818-97.047273-83.781819-161.745455v-43.52c0-108.218182 86.574545-195.956364 193.163637-196.18909h54.225454c19.549091 0 35.141818 16.058182 35.141819 35.84V336.75636399999996c0 19.781818-15.592727 35.84-35.141819 35.84h-54.225454c-13.498182 0-26.530909-1.396364-39.098182-4.189091-0.232727 0-0.465455 0.232727-0.465455 0.465454v64.698182c0 174.545455 139.869091 316.741818 311.854546 316.741818 171.52 0 311.156364-141.265455 312.087273-315.112727 0-0.465455 0-1.163636 0.232727-1.629091h-0.465455v-65.163636c-12.8 2.792727-26.065455 4.189091-39.563636 4.189091h-54.690909c-19.083636 0-34.676364-16.058182-34.676364-35.607273V-27.927273000000014c0-19.549091 15.592727-35.607273 34.676364-35.607272h54.690909c106.589091 0.232727 193.163636 87.970909 193.163636 196.18909v43.52c0 64.698182-31.418182 125.207273-84.014545 161.745455zM109.917091 139.63636399999996c4.887273-62.370909 23.738182-107.287273 23.738182-107.287273-69.352727 47.941818-66.56 182.923636 9.309091 223.883636 0 0-36.538182-69.585455-33.047273-116.596363z m798.254545-107.287273s18.618182 44.916364 23.505455 107.287273c3.723636 47.010909-33.047273 116.596364-33.047273 116.596363 75.869091-40.96 78.661818-175.941818 9.541818-223.883636z"  horiz-adv-x="1024" />

    
    <glyph glyph-name="left" unicode="&#58896;" d="M227.23072 357.78560000000004c2.45248-4.25472 4.25472-8.82688 8.0128-12.58496 0.8192-0.65536 1.46944-1.14176 2.1248-1.79712 0.97792-0.8192 1.31072-2.12992 2.12992-2.93888l457.58464-441.088a62.1824 62.1824 0 0 1 43.47392-17.64352c16.34304 0 32.84992 6.53312 45.1072 19.28192 24.02304 25.00608 23.36768 64.72192-1.63328 88.73984l-412.81024 397.7728 414.44352 392.04864c25.1648 23.86432 26.3168 63.57504 2.45248 88.73984-23.86432 25.1648-63.57504 26.3168-88.73984 2.45248L237.5424 433.94048c-20.26496-19.11296-24.02304-48.53248-12.57984-72.3968 0.48128-1.3056 1.62816-2.45248 2.2784-3.75808h-0.01024z"  horiz-adv-x="1024" />

    


  </font>
</defs>
</svg>
